<mxfile host="app.diagrams.net" agent="Mozilla/5.0 (X11; Linux x86_64; rv:130.0) Gecko/20100101 Firefox/130.0" version="24.7.13">
  <diagram name="Page-1" id="kIHcAmEFX1tYWVs9bp1Y">
    <mxGraphModel dx="2122" dy="1271" grid="1" gridSize="10" guides="1" tooltips="1" connect="1" arrows="1" fold="1" page="1" pageScale="1" pageWidth="850" pageHeight="1100" math="0" shadow="0">
      <root>
        <mxCell id="0" />
        <mxCell id="1" parent="0" />
        <mxCell id="BoimEWRhP2H_KOOpcaRi-5" style="edgeStyle=orthogonalEdgeStyle;rounded=0;orthogonalLoop=1;jettySize=auto;html=1;entryX=0.5;entryY=0;entryDx=0;entryDy=0;" parent="1" source="BoimEWRhP2H_KOOpcaRi-1" target="on2UgNes5SmuWqUOYqiY-1" edge="1">
          <mxGeometry relative="1" as="geometry" />
        </mxCell>
        <mxCell id="BoimEWRhP2H_KOOpcaRi-1" value="Початок" style="rounded=1;whiteSpace=wrap;html=1;arcSize=49;" parent="1" vertex="1">
          <mxGeometry x="540" y="20" width="120" height="60" as="geometry" />
        </mxCell>
        <mxCell id="BoimEWRhP2H_KOOpcaRi-7" style="edgeStyle=orthogonalEdgeStyle;rounded=0;orthogonalLoop=1;jettySize=auto;html=1;entryX=0.5;entryY=0;entryDx=0;entryDy=0;" parent="1" source="BoimEWRhP2H_KOOpcaRi-3" edge="1">
          <mxGeometry relative="1" as="geometry">
            <mxPoint x="600" y="320" as="targetPoint" />
          </mxGeometry>
        </mxCell>
        <mxCell id="BoimEWRhP2H_KOOpcaRi-3" value="Ввід х" style="shape=parallelogram;perimeter=parallelogramPerimeter;whiteSpace=wrap;html=1;fixedSize=1;" parent="1" vertex="1">
          <mxGeometry x="540" y="220" width="120" height="60" as="geometry" />
        </mxCell>
        <mxCell id="BoimEWRhP2H_KOOpcaRi-18" value="y = f2(x)" style="shape=process;whiteSpace=wrap;html=1;backgroundOutline=1;" parent="1" vertex="1">
          <mxGeometry x="620" y="440" width="120" height="60" as="geometry" />
        </mxCell>
        <mxCell id="BoimEWRhP2H_KOOpcaRi-29" value="printf(&quot;no such value exists\n&quot;);" style="shape=parallelogram;perimeter=parallelogramPerimeter;whiteSpace=wrap;html=1;fixedSize=1;fontSize=8;" parent="1" vertex="1">
          <mxGeometry x="539.89" y="560" width="120" height="60" as="geometry" />
        </mxCell>
        <mxCell id="BoimEWRhP2H_KOOpcaRi-57" value="Кінець" style="rounded=1;whiteSpace=wrap;html=1;arcSize=49;" parent="1" vertex="1">
          <mxGeometry x="379.89" y="1320" width="120" height="60" as="geometry" />
        </mxCell>
        <mxCell id="BoimEWRhP2H_KOOpcaRi-77" style="edgeStyle=orthogonalEdgeStyle;rounded=0;orthogonalLoop=1;jettySize=auto;html=1;" parent="1" source="BoimEWRhP2H_KOOpcaRi-76" edge="1">
          <mxGeometry relative="1" as="geometry">
            <mxPoint x="120" y="120" as="targetPoint" />
          </mxGeometry>
        </mxCell>
        <mxCell id="BoimEWRhP2H_KOOpcaRi-76" value="Початок f1(float x)" style="rounded=1;whiteSpace=wrap;html=1;arcSize=49;" parent="1" vertex="1">
          <mxGeometry x="60" y="20" width="120" height="60" as="geometry" />
        </mxCell>
        <mxCell id="BoimEWRhP2H_KOOpcaRi-80" style="edgeStyle=orthogonalEdgeStyle;rounded=0;orthogonalLoop=1;jettySize=auto;html=1;entryX=0.5;entryY=0;entryDx=0;entryDy=0;" parent="1" source="BoimEWRhP2H_KOOpcaRi-78" target="BoimEWRhP2H_KOOpcaRi-79" edge="1">
          <mxGeometry relative="1" as="geometry" />
        </mxCell>
        <mxCell id="BoimEWRhP2H_KOOpcaRi-78" value="-9 * x*x*x + 5 * x*x" style="rounded=0;whiteSpace=wrap;html=1;" parent="1" vertex="1">
          <mxGeometry x="60" y="120" width="120" height="60" as="geometry" />
        </mxCell>
        <mxCell id="BoimEWRhP2H_KOOpcaRi-79" value="Кінець f1" style="rounded=1;whiteSpace=wrap;html=1;arcSize=49;" parent="1" vertex="1">
          <mxGeometry x="60" y="220" width="120" height="60" as="geometry" />
        </mxCell>
        <mxCell id="BoimEWRhP2H_KOOpcaRi-81" style="edgeStyle=orthogonalEdgeStyle;rounded=0;orthogonalLoop=1;jettySize=auto;html=1;" parent="1" source="BoimEWRhP2H_KOOpcaRi-82" edge="1">
          <mxGeometry relative="1" as="geometry">
            <mxPoint x="305" y="120" as="targetPoint" />
          </mxGeometry>
        </mxCell>
        <mxCell id="BoimEWRhP2H_KOOpcaRi-82" value="Початок f2(float x)" style="rounded=1;whiteSpace=wrap;html=1;arcSize=49;" parent="1" vertex="1">
          <mxGeometry x="245" y="20" width="120" height="60" as="geometry" />
        </mxCell>
        <mxCell id="BoimEWRhP2H_KOOpcaRi-83" style="edgeStyle=orthogonalEdgeStyle;rounded=0;orthogonalLoop=1;jettySize=auto;html=1;entryX=0.5;entryY=0;entryDx=0;entryDy=0;" parent="1" source="BoimEWRhP2H_KOOpcaRi-84" target="BoimEWRhP2H_KOOpcaRi-85" edge="1">
          <mxGeometry relative="1" as="geometry" />
        </mxCell>
        <mxCell id="BoimEWRhP2H_KOOpcaRi-84" value="-x*x - 12" style="rounded=0;whiteSpace=wrap;html=1;" parent="1" vertex="1">
          <mxGeometry x="245" y="120" width="120" height="60" as="geometry" />
        </mxCell>
        <mxCell id="BoimEWRhP2H_KOOpcaRi-85" value="Кінець f2" style="rounded=1;whiteSpace=wrap;html=1;arcSize=49;" parent="1" vertex="1">
          <mxGeometry x="245" y="220" width="120" height="60" as="geometry" />
        </mxCell>
        <mxCell id="wGExduRjAmVG5BvR8P2I-9" style="edgeStyle=orthogonalEdgeStyle;rounded=0;orthogonalLoop=1;jettySize=auto;html=1;endArrow=none;endFill=0;" parent="1" source="wGExduRjAmVG5BvR8P2I-13" edge="1">
          <mxGeometry relative="1" as="geometry">
            <mxPoint x="679.89" y="360" as="targetPoint" />
          </mxGeometry>
        </mxCell>
        <mxCell id="wGExduRjAmVG5BvR8P2I-10" value="1" style="edgeLabel;html=1;align=center;verticalAlign=middle;resizable=0;points=[];" parent="wGExduRjAmVG5BvR8P2I-9" vertex="1" connectable="0">
          <mxGeometry x="-0.2254" y="-1" relative="1" as="geometry">
            <mxPoint y="-11" as="offset" />
          </mxGeometry>
        </mxCell>
        <mxCell id="wGExduRjAmVG5BvR8P2I-11" style="edgeStyle=orthogonalEdgeStyle;rounded=0;orthogonalLoop=1;jettySize=auto;html=1;endArrow=none;endFill=0;" parent="1" source="wGExduRjAmVG5BvR8P2I-13" edge="1">
          <mxGeometry relative="1" as="geometry">
            <mxPoint x="519.89" y="360" as="targetPoint" />
          </mxGeometry>
        </mxCell>
        <mxCell id="wGExduRjAmVG5BvR8P2I-12" value="0" style="edgeLabel;html=1;align=center;verticalAlign=middle;resizable=0;points=[];" parent="wGExduRjAmVG5BvR8P2I-11" vertex="1" connectable="0">
          <mxGeometry x="-0.1772" relative="1" as="geometry">
            <mxPoint y="-10" as="offset" />
          </mxGeometry>
        </mxCell>
        <mxCell id="wGExduRjAmVG5BvR8P2I-13" value="x &amp;lt;= 0" style="rhombus;whiteSpace=wrap;html=1;" parent="1" vertex="1">
          <mxGeometry x="539.89" y="320" width="120" height="80" as="geometry" />
        </mxCell>
        <mxCell id="wGExduRjAmVG5BvR8P2I-14" value="" style="endArrow=classic;html=1;rounded=0;" parent="1" edge="1">
          <mxGeometry width="50" height="50" relative="1" as="geometry">
            <mxPoint x="519.89" y="360" as="sourcePoint" />
            <mxPoint x="519.89" y="440" as="targetPoint" />
          </mxGeometry>
        </mxCell>
        <mxCell id="wGExduRjAmVG5BvR8P2I-15" value="" style="endArrow=classic;html=1;rounded=0;" parent="1" edge="1">
          <mxGeometry width="50" height="50" relative="1" as="geometry">
            <mxPoint x="679.7799999999999" y="360" as="sourcePoint" />
            <mxPoint x="679.7799999999999" y="440" as="targetPoint" />
          </mxGeometry>
        </mxCell>
        <mxCell id="wGExduRjAmVG5BvR8P2I-24" style="edgeStyle=orthogonalEdgeStyle;rounded=0;orthogonalLoop=1;jettySize=auto;html=1;endArrow=none;endFill=0;" parent="1" source="wGExduRjAmVG5BvR8P2I-28" edge="1">
          <mxGeometry relative="1" as="geometry">
            <mxPoint x="600" y="480" as="targetPoint" />
          </mxGeometry>
        </mxCell>
        <mxCell id="wGExduRjAmVG5BvR8P2I-25" value="1" style="edgeLabel;html=1;align=center;verticalAlign=middle;resizable=0;points=[];" parent="wGExduRjAmVG5BvR8P2I-24" vertex="1" connectable="0">
          <mxGeometry x="-0.2254" y="-1" relative="1" as="geometry">
            <mxPoint y="-11" as="offset" />
          </mxGeometry>
        </mxCell>
        <mxCell id="wGExduRjAmVG5BvR8P2I-26" style="edgeStyle=orthogonalEdgeStyle;rounded=0;orthogonalLoop=1;jettySize=auto;html=1;endArrow=none;endFill=0;" parent="1" source="wGExduRjAmVG5BvR8P2I-28" edge="1">
          <mxGeometry relative="1" as="geometry">
            <mxPoint x="440" y="480" as="targetPoint" />
          </mxGeometry>
        </mxCell>
        <mxCell id="wGExduRjAmVG5BvR8P2I-27" value="0" style="edgeLabel;html=1;align=center;verticalAlign=middle;resizable=0;points=[];" parent="wGExduRjAmVG5BvR8P2I-26" vertex="1" connectable="0">
          <mxGeometry x="-0.1772" relative="1" as="geometry">
            <mxPoint y="-10" as="offset" />
          </mxGeometry>
        </mxCell>
        <mxCell id="wGExduRjAmVG5BvR8P2I-28" value="x &amp;lt;= 2" style="rhombus;whiteSpace=wrap;html=1;" parent="1" vertex="1">
          <mxGeometry x="460" y="440" width="120" height="80" as="geometry" />
        </mxCell>
        <mxCell id="wGExduRjAmVG5BvR8P2I-29" value="" style="endArrow=classic;html=1;rounded=0;" parent="1" edge="1">
          <mxGeometry width="50" height="50" relative="1" as="geometry">
            <mxPoint x="440" y="480" as="sourcePoint" />
            <mxPoint x="440" y="560" as="targetPoint" />
          </mxGeometry>
        </mxCell>
        <mxCell id="wGExduRjAmVG5BvR8P2I-30" value="" style="endArrow=classic;html=1;rounded=0;" parent="1" edge="1">
          <mxGeometry width="50" height="50" relative="1" as="geometry">
            <mxPoint x="599.89" y="480" as="sourcePoint" />
            <mxPoint x="599.89" y="560" as="targetPoint" />
          </mxGeometry>
        </mxCell>
        <mxCell id="wGExduRjAmVG5BvR8P2I-31" style="edgeStyle=orthogonalEdgeStyle;rounded=0;orthogonalLoop=1;jettySize=auto;html=1;endArrow=none;endFill=0;" parent="1" source="wGExduRjAmVG5BvR8P2I-35" edge="1">
          <mxGeometry relative="1" as="geometry">
            <mxPoint x="520" y="600" as="targetPoint" />
          </mxGeometry>
        </mxCell>
        <mxCell id="wGExduRjAmVG5BvR8P2I-32" value="1" style="edgeLabel;html=1;align=center;verticalAlign=middle;resizable=0;points=[];" parent="wGExduRjAmVG5BvR8P2I-31" vertex="1" connectable="0">
          <mxGeometry x="-0.2254" y="-1" relative="1" as="geometry">
            <mxPoint y="-11" as="offset" />
          </mxGeometry>
        </mxCell>
        <mxCell id="wGExduRjAmVG5BvR8P2I-33" style="edgeStyle=orthogonalEdgeStyle;rounded=0;orthogonalLoop=1;jettySize=auto;html=1;endArrow=none;endFill=0;" parent="1" source="wGExduRjAmVG5BvR8P2I-35" edge="1">
          <mxGeometry relative="1" as="geometry">
            <mxPoint x="360" y="600" as="targetPoint" />
          </mxGeometry>
        </mxCell>
        <mxCell id="wGExduRjAmVG5BvR8P2I-34" value="0" style="edgeLabel;html=1;align=center;verticalAlign=middle;resizable=0;points=[];" parent="wGExduRjAmVG5BvR8P2I-33" vertex="1" connectable="0">
          <mxGeometry x="-0.1772" relative="1" as="geometry">
            <mxPoint y="-10" as="offset" />
          </mxGeometry>
        </mxCell>
        <mxCell id="wGExduRjAmVG5BvR8P2I-35" value="x &amp;lt;= 12" style="rhombus;whiteSpace=wrap;html=1;" parent="1" vertex="1">
          <mxGeometry x="380" y="560" width="120" height="80" as="geometry" />
        </mxCell>
        <mxCell id="wGExduRjAmVG5BvR8P2I-36" value="" style="endArrow=classic;html=1;rounded=0;" parent="1" edge="1">
          <mxGeometry width="50" height="50" relative="1" as="geometry">
            <mxPoint x="360" y="600" as="sourcePoint" />
            <mxPoint x="360" y="680" as="targetPoint" />
          </mxGeometry>
        </mxCell>
        <mxCell id="wGExduRjAmVG5BvR8P2I-37" value="" style="endArrow=classic;html=1;rounded=0;" parent="1" edge="1">
          <mxGeometry width="50" height="50" relative="1" as="geometry">
            <mxPoint x="519.89" y="600" as="sourcePoint" />
            <mxPoint x="519.89" y="680" as="targetPoint" />
          </mxGeometry>
        </mxCell>
        <mxCell id="wGExduRjAmVG5BvR8P2I-38" value="y = f1(x)" style="shape=process;whiteSpace=wrap;html=1;backgroundOutline=1;" parent="1" vertex="1">
          <mxGeometry x="460" y="680" width="120" height="60" as="geometry" />
        </mxCell>
        <mxCell id="wGExduRjAmVG5BvR8P2I-40" style="edgeStyle=orthogonalEdgeStyle;rounded=0;orthogonalLoop=1;jettySize=auto;html=1;endArrow=none;endFill=0;" parent="1" source="wGExduRjAmVG5BvR8P2I-44" edge="1">
          <mxGeometry relative="1" as="geometry">
            <mxPoint x="440" y="720" as="targetPoint" />
          </mxGeometry>
        </mxCell>
        <mxCell id="wGExduRjAmVG5BvR8P2I-41" value="1" style="edgeLabel;html=1;align=center;verticalAlign=middle;resizable=0;points=[];" parent="wGExduRjAmVG5BvR8P2I-40" vertex="1" connectable="0">
          <mxGeometry x="-0.2254" y="-1" relative="1" as="geometry">
            <mxPoint y="-11" as="offset" />
          </mxGeometry>
        </mxCell>
        <mxCell id="wGExduRjAmVG5BvR8P2I-42" style="edgeStyle=orthogonalEdgeStyle;rounded=0;orthogonalLoop=1;jettySize=auto;html=1;endArrow=none;endFill=0;" parent="1" source="wGExduRjAmVG5BvR8P2I-44" edge="1">
          <mxGeometry relative="1" as="geometry">
            <mxPoint x="280" y="720" as="targetPoint" />
          </mxGeometry>
        </mxCell>
        <mxCell id="wGExduRjAmVG5BvR8P2I-43" value="0" style="edgeLabel;html=1;align=center;verticalAlign=middle;resizable=0;points=[];" parent="wGExduRjAmVG5BvR8P2I-42" vertex="1" connectable="0">
          <mxGeometry x="-0.1772" relative="1" as="geometry">
            <mxPoint y="-10" as="offset" />
          </mxGeometry>
        </mxCell>
        <mxCell id="wGExduRjAmVG5BvR8P2I-44" value="x &amp;lt;= 22" style="rhombus;whiteSpace=wrap;html=1;" parent="1" vertex="1">
          <mxGeometry x="300" y="680" width="120" height="80" as="geometry" />
        </mxCell>
        <mxCell id="wGExduRjAmVG5BvR8P2I-45" value="" style="endArrow=classic;html=1;rounded=0;" parent="1" edge="1">
          <mxGeometry width="50" height="50" relative="1" as="geometry">
            <mxPoint x="280" y="720" as="sourcePoint" />
            <mxPoint x="280" y="800" as="targetPoint" />
          </mxGeometry>
        </mxCell>
        <mxCell id="wGExduRjAmVG5BvR8P2I-46" value="" style="endArrow=classic;html=1;rounded=0;" parent="1" edge="1">
          <mxGeometry width="50" height="50" relative="1" as="geometry">
            <mxPoint x="439.89" y="720" as="sourcePoint" />
            <mxPoint x="439.89" y="800" as="targetPoint" />
          </mxGeometry>
        </mxCell>
        <mxCell id="wGExduRjAmVG5BvR8P2I-47" value="printf(&quot;no such value exists\n&quot;);" style="shape=parallelogram;perimeter=parallelogramPerimeter;whiteSpace=wrap;html=1;fixedSize=1;fontSize=8;" parent="1" vertex="1">
          <mxGeometry x="380" y="800" width="120" height="60" as="geometry" />
        </mxCell>
        <mxCell id="wGExduRjAmVG5BvR8P2I-52" style="edgeStyle=orthogonalEdgeStyle;rounded=0;orthogonalLoop=1;jettySize=auto;html=1;endArrow=none;endFill=0;" parent="1" source="wGExduRjAmVG5BvR8P2I-56" edge="1">
          <mxGeometry relative="1" as="geometry">
            <mxPoint x="359.28" y="840" as="targetPoint" />
          </mxGeometry>
        </mxCell>
        <mxCell id="wGExduRjAmVG5BvR8P2I-53" value="1" style="edgeLabel;html=1;align=center;verticalAlign=middle;resizable=0;points=[];" parent="wGExduRjAmVG5BvR8P2I-52" vertex="1" connectable="0">
          <mxGeometry x="-0.2254" y="-1" relative="1" as="geometry">
            <mxPoint y="-11" as="offset" />
          </mxGeometry>
        </mxCell>
        <mxCell id="wGExduRjAmVG5BvR8P2I-54" style="edgeStyle=orthogonalEdgeStyle;rounded=0;orthogonalLoop=1;jettySize=auto;html=1;endArrow=none;endFill=0;" parent="1" source="wGExduRjAmVG5BvR8P2I-56" edge="1">
          <mxGeometry relative="1" as="geometry">
            <mxPoint x="199.28" y="840" as="targetPoint" />
          </mxGeometry>
        </mxCell>
        <mxCell id="wGExduRjAmVG5BvR8P2I-55" value="0" style="edgeLabel;html=1;align=center;verticalAlign=middle;resizable=0;points=[];" parent="wGExduRjAmVG5BvR8P2I-54" vertex="1" connectable="0">
          <mxGeometry x="-0.1772" relative="1" as="geometry">
            <mxPoint y="-10" as="offset" />
          </mxGeometry>
        </mxCell>
        <mxCell id="wGExduRjAmVG5BvR8P2I-56" value="x &amp;lt; 32" style="rhombus;whiteSpace=wrap;html=1;" parent="1" vertex="1">
          <mxGeometry x="219.28" y="800" width="120" height="80" as="geometry" />
        </mxCell>
        <mxCell id="wGExduRjAmVG5BvR8P2I-57" value="" style="endArrow=classic;html=1;rounded=0;" parent="1" edge="1">
          <mxGeometry width="50" height="50" relative="1" as="geometry">
            <mxPoint x="199.28" y="840" as="sourcePoint" />
            <mxPoint x="199.28" y="920" as="targetPoint" />
          </mxGeometry>
        </mxCell>
        <mxCell id="wGExduRjAmVG5BvR8P2I-58" value="" style="endArrow=classic;html=1;rounded=0;" parent="1" edge="1">
          <mxGeometry width="50" height="50" relative="1" as="geometry">
            <mxPoint x="359.16999999999996" y="840" as="sourcePoint" />
            <mxPoint x="359.16999999999996" y="920" as="targetPoint" />
          </mxGeometry>
        </mxCell>
        <mxCell id="wGExduRjAmVG5BvR8P2I-60" style="edgeStyle=orthogonalEdgeStyle;rounded=0;orthogonalLoop=1;jettySize=auto;html=1;endArrow=none;endFill=0;" parent="1" source="wGExduRjAmVG5BvR8P2I-59" edge="1">
          <mxGeometry relative="1" as="geometry">
            <mxPoint x="360" y="1020" as="targetPoint" />
          </mxGeometry>
        </mxCell>
        <mxCell id="wGExduRjAmVG5BvR8P2I-59" value="y = f1(x)" style="shape=process;whiteSpace=wrap;html=1;backgroundOutline=1;" parent="1" vertex="1">
          <mxGeometry x="300" y="920" width="120" height="60" as="geometry" />
        </mxCell>
        <mxCell id="wGExduRjAmVG5BvR8P2I-62" value="&lt;font style=&quot;font-size: 8px;&quot;&gt;printf(&quot;%f\n&quot;, y)&lt;/font&gt;;" style="shape=parallelogram;perimeter=parallelogramPerimeter;whiteSpace=wrap;html=1;fixedSize=1;" parent="1" vertex="1">
          <mxGeometry x="460" y="1180" width="120" height="60" as="geometry" />
        </mxCell>
        <mxCell id="wGExduRjAmVG5BvR8P2I-63" value="printf(&quot;no such value exists\n&quot;);" style="shape=parallelogram;perimeter=parallelogramPerimeter;whiteSpace=wrap;html=1;fixedSize=1;fontSize=8;" parent="1" vertex="1">
          <mxGeometry x="140" y="920" width="120" height="60" as="geometry" />
        </mxCell>
        <mxCell id="on2UgNes5SmuWqUOYqiY-2" style="edgeStyle=orthogonalEdgeStyle;rounded=0;orthogonalLoop=1;jettySize=auto;html=1;entryX=0.5;entryY=0;entryDx=0;entryDy=0;" edge="1" parent="1" source="on2UgNes5SmuWqUOYqiY-1" target="BoimEWRhP2H_KOOpcaRi-3">
          <mxGeometry relative="1" as="geometry" />
        </mxCell>
        <mxCell id="on2UgNes5SmuWqUOYqiY-1" value="y = 0.0" style="rounded=0;whiteSpace=wrap;html=1;" vertex="1" parent="1">
          <mxGeometry x="540" y="120" width="120" height="60" as="geometry" />
        </mxCell>
        <mxCell id="on2UgNes5SmuWqUOYqiY-5" style="edgeStyle=orthogonalEdgeStyle;rounded=0;orthogonalLoop=1;jettySize=auto;html=1;endArrow=none;endFill=0;" edge="1" source="on2UgNes5SmuWqUOYqiY-9" parent="1">
          <mxGeometry relative="1" as="geometry">
            <mxPoint x="519.89" y="1100" as="targetPoint" />
          </mxGeometry>
        </mxCell>
        <mxCell id="on2UgNes5SmuWqUOYqiY-6" value="1" style="edgeLabel;html=1;align=center;verticalAlign=middle;resizable=0;points=[];" vertex="1" connectable="0" parent="on2UgNes5SmuWqUOYqiY-5">
          <mxGeometry x="-0.2254" y="-1" relative="1" as="geometry">
            <mxPoint y="-11" as="offset" />
          </mxGeometry>
        </mxCell>
        <mxCell id="on2UgNes5SmuWqUOYqiY-7" style="edgeStyle=orthogonalEdgeStyle;rounded=0;orthogonalLoop=1;jettySize=auto;html=1;endArrow=none;endFill=0;" edge="1" source="on2UgNes5SmuWqUOYqiY-9" parent="1">
          <mxGeometry relative="1" as="geometry">
            <mxPoint x="359.89" y="1100" as="targetPoint" />
          </mxGeometry>
        </mxCell>
        <mxCell id="on2UgNes5SmuWqUOYqiY-8" value="0" style="edgeLabel;html=1;align=center;verticalAlign=middle;resizable=0;points=[];" vertex="1" connectable="0" parent="on2UgNes5SmuWqUOYqiY-7">
          <mxGeometry x="-0.1772" relative="1" as="geometry">
            <mxPoint y="-10" as="offset" />
          </mxGeometry>
        </mxCell>
        <mxCell id="on2UgNes5SmuWqUOYqiY-9" value="y != 0" style="rhombus;whiteSpace=wrap;html=1;" vertex="1" parent="1">
          <mxGeometry x="379.89" y="1060" width="120" height="80" as="geometry" />
        </mxCell>
        <mxCell id="on2UgNes5SmuWqUOYqiY-10" value="" style="endArrow=none;html=1;rounded=0;endFill=0;" edge="1" parent="1">
          <mxGeometry width="50" height="50" relative="1" as="geometry">
            <mxPoint x="359.89" y="1100" as="sourcePoint" />
            <mxPoint x="360" y="1280" as="targetPoint" />
          </mxGeometry>
        </mxCell>
        <mxCell id="on2UgNes5SmuWqUOYqiY-11" value="" style="endArrow=classic;html=1;rounded=0;" edge="1" parent="1">
          <mxGeometry width="50" height="50" relative="1" as="geometry">
            <mxPoint x="519.7799999999999" y="1100" as="sourcePoint" />
            <mxPoint x="519.7799999999999" y="1180" as="targetPoint" />
          </mxGeometry>
        </mxCell>
        <mxCell id="on2UgNes5SmuWqUOYqiY-14" value="" style="endArrow=none;html=1;rounded=0;exitX=0.5;exitY=1;exitDx=0;exitDy=0;endFill=0;" edge="1" parent="1" source="wGExduRjAmVG5BvR8P2I-62">
          <mxGeometry width="50" height="50" relative="1" as="geometry">
            <mxPoint x="500" y="1210" as="sourcePoint" />
            <mxPoint x="520" y="1280" as="targetPoint" />
          </mxGeometry>
        </mxCell>
        <mxCell id="on2UgNes5SmuWqUOYqiY-15" value="" style="endArrow=none;html=1;rounded=0;" edge="1" parent="1">
          <mxGeometry width="50" height="50" relative="1" as="geometry">
            <mxPoint x="520" y="1280" as="sourcePoint" />
            <mxPoint x="360" y="1280" as="targetPoint" />
          </mxGeometry>
        </mxCell>
        <mxCell id="on2UgNes5SmuWqUOYqiY-17" value="" style="endArrow=classic;html=1;rounded=0;entryX=0.497;entryY=-0.041;entryDx=0;entryDy=0;entryPerimeter=0;" edge="1" parent="1" target="BoimEWRhP2H_KOOpcaRi-57">
          <mxGeometry width="50" height="50" relative="1" as="geometry">
            <mxPoint x="440" y="1280" as="sourcePoint" />
            <mxPoint x="550" y="1240" as="targetPoint" />
          </mxGeometry>
        </mxCell>
        <mxCell id="on2UgNes5SmuWqUOYqiY-18" value="" style="endArrow=none;html=1;rounded=0;exitX=0.5;exitY=1;exitDx=0;exitDy=0;" edge="1" parent="1">
          <mxGeometry width="50" height="50" relative="1" as="geometry">
            <mxPoint x="199.88" y="980" as="sourcePoint" />
            <mxPoint x="199.88" y="1020" as="targetPoint" />
          </mxGeometry>
        </mxCell>
        <mxCell id="on2UgNes5SmuWqUOYqiY-19" value="" style="endArrow=none;html=1;rounded=0;" edge="1" parent="1">
          <mxGeometry width="50" height="50" relative="1" as="geometry">
            <mxPoint x="440" y="1020" as="sourcePoint" />
            <mxPoint x="439.76" y="860" as="targetPoint" />
          </mxGeometry>
        </mxCell>
        <mxCell id="on2UgNes5SmuWqUOYqiY-20" value="" style="endArrow=none;html=1;rounded=0;" edge="1" parent="1">
          <mxGeometry width="50" height="50" relative="1" as="geometry">
            <mxPoint x="519.76" y="1020" as="sourcePoint" />
            <mxPoint x="519.76" y="740" as="targetPoint" />
          </mxGeometry>
        </mxCell>
        <mxCell id="on2UgNes5SmuWqUOYqiY-21" value="" style="endArrow=none;html=1;rounded=0;entryX=0.5;entryY=1;entryDx=0;entryDy=0;" edge="1" parent="1" target="BoimEWRhP2H_KOOpcaRi-29">
          <mxGeometry width="50" height="50" relative="1" as="geometry">
            <mxPoint x="600" y="1020" as="sourcePoint" />
            <mxPoint x="640" y="770" as="targetPoint" />
          </mxGeometry>
        </mxCell>
        <mxCell id="on2UgNes5SmuWqUOYqiY-22" value="" style="endArrow=none;html=1;rounded=0;entryX=0.5;entryY=1;entryDx=0;entryDy=0;" edge="1" parent="1" target="BoimEWRhP2H_KOOpcaRi-18">
          <mxGeometry width="50" height="50" relative="1" as="geometry">
            <mxPoint x="680" y="1020" as="sourcePoint" />
            <mxPoint x="670" y="810" as="targetPoint" />
          </mxGeometry>
        </mxCell>
        <mxCell id="on2UgNes5SmuWqUOYqiY-23" value="" style="endArrow=none;html=1;rounded=0;" edge="1" parent="1">
          <mxGeometry width="50" height="50" relative="1" as="geometry">
            <mxPoint x="200" y="1020" as="sourcePoint" />
            <mxPoint x="680" y="1020" as="targetPoint" />
          </mxGeometry>
        </mxCell>
        <mxCell id="on2UgNes5SmuWqUOYqiY-24" value="" style="endArrow=classic;html=1;rounded=0;endFill=1;entryX=0.5;entryY=0;entryDx=0;entryDy=0;" edge="1" parent="1" target="on2UgNes5SmuWqUOYqiY-9">
          <mxGeometry width="50" height="50" relative="1" as="geometry">
            <mxPoint x="440" y="1020" as="sourcePoint" />
            <mxPoint x="410.11" y="1030" as="targetPoint" />
          </mxGeometry>
        </mxCell>
      </root>
    </mxGraphModel>
  </diagram>
</mxfile>
